<svg id="Capa_1" enable-background="new 0 0 512 512" height="32" viewBox="0 0 512 512" width="32" xmlns="http://www.w3.org/2000/svg"><g><path d="m412.22 193.525h-18.64c-4.95 67.068-61.1 120.117-129.41 120.117h-116.11v63.748c0 55.019 44.76 99.777 99.77 99.777h180.93c5.1 0 10.09 1.42 14.42 4.1l45.92 28.469c9.836 6.122 22.9-.857 22.9-12.75v-203.684c0-55.018-44.76-99.777-99.78-99.777zm-71.51 236.884h-93.97c-8.28 0-15-6.72-15-15 0-8.29 6.72-15 15-15h93.97c8.28 0 15 6.71 15 15 0 8.28-6.72 15-15 15zm106.29 0h-46.29c-8.29 0-15-6.72-15-15 0-8.29 6.71-15 15-15h46.29c8.28 0 15 6.71 15 15 0 8.28-6.72 15-15 15zm0-59.999h-200.26c-8.28 0-15-6.72-15-15 0-8.29 6.72-15 15-15h200.26c8.28 0 15 6.71 15 15 0 8.281-6.72 15-15 15z"/><path d="m218.19 91.088c-11.743.019-16.837 7.127-25.61 15.91-5.824 5.824-15.322 5.877-21.22 0-9.032-9.032-13.964-15.9-25.61-15.9-6.01 0-12.01 2.29-16.58 6.86-9.177 9.177-9.159 24.011 0 33.149l52.8 52.799 52.8-52.799c9.14-9.14 9.14-24.009 0-33.149-4.43-4.43-10.32-6.87-16.58-6.87z"/><path d="m363.94 183.875v-168.875c0-8.28-6.71-15-15-15h-249.16c-55.02 0-99.78 44.759-99.78 99.777v203.685c0 11.798 12.993 18.915 22.9 12.75l45.92-28.459c4.34-2.69 9.32-4.11 14.42-4.11h180.93c55.02 0 99.77-44.759 99.77-99.768zm-171.36 31.849c-5.842 5.842-15.365 5.865-21.21 0l-63.41-63.398c-20.922-20.921-20.868-54.721-.01-75.578 20.33-20.329 53.08-20.829 74.02-1.51 20.873-19.29 53.571-18.949 74.01 1.51 20.84 20.829 20.84 54.739 0 75.578z"/></g></svg>