<?xml version="1.0" encoding="UTF-8"?>
<svg xmlns="http://www.w3.org/2000/svg" xmlns:xlink="http://www.w3.org/1999/xlink" width="100pt" height="100pt" viewBox="0 0 100 100" version="1.1">
<defs>
<filter id="alpha" filterUnits="objectBoundingBox" x="0%" y="0%" width="100%" height="100%">
  <feColorMatrix type="matrix" in="SourceGraphic" values="0 0 0 0 1 0 0 0 0 1 0 0 0 0 1 0 0 0 1 0"/>
</filter>
<mask id="mask0">
  <g filter="url(#alpha)">
<rect x="0" y="0" width="100" height="100" style="fill:rgb(0%,0%,0%);fill-opacity:0.101961;stroke:none;"/>
  </g>
</mask>
<clipPath id="clip1">
  <rect x="0" y="0" width="100" height="100"/>
</clipPath>
<g id="surface5" clip-path="url(#clip1)">
<path style=" stroke:none;fill-rule:nonzero;fill:rgb(0%,0%,0%);fill-opacity:1;" d="M 12.820312 65.644531 C 7.507812 63.710938 0.0898438 57 1.679688 52.632812 C 3.269531 48.265625 13.265625 47.894531 18.578125 49.824219 C 23.890625 51.757812 25.785156 56.457031 24.195312 60.828125 C 22.605469 65.195312 18.132812 67.578125 12.820312 65.644531 Z M 12.820312 65.644531 "/>
</g>
<mask id="mask1">
  <g filter="url(#alpha)">
<rect x="0" y="0" width="100" height="100" style="fill:rgb(0%,0%,0%);fill-opacity:0.101961;stroke:none;"/>
  </g>
</mask>
<clipPath id="clip2">
  <rect x="0" y="0" width="100" height="100"/>
</clipPath>
<g id="surface8" clip-path="url(#clip2)">
<path style=" stroke:none;fill-rule:nonzero;fill:rgb(0%,0%,0%);fill-opacity:1;" d="M 18.578125 49.824219 C 16.625 49.113281 14.039062 48.714844 11.46875 48.714844 C 10.542969 54.546875 10.488281 60.144531 11.292969 64.984375 C 11.8125 65.242188 12.328125 65.464844 12.820312 65.644531 C 18.132812 67.578125 22.605469 65.195312 24.195312 60.828125 C 25.785156 56.457031 23.890625 51.757812 18.578125 49.824219 Z M 18.578125 49.824219 "/>
</g>
<mask id="mask2">
  <g filter="url(#alpha)">
<rect x="0" y="0" width="100" height="100" style="fill:rgb(0%,0%,0%);fill-opacity:0.101961;stroke:none;"/>
  </g>
</mask>
<clipPath id="clip3">
  <rect x="0" y="0" width="100" height="100"/>
</clipPath>
<g id="surface11" clip-path="url(#clip3)">
<path style=" stroke:none;fill-rule:nonzero;fill:rgb(0%,0%,0%);fill-opacity:1;" d="M 87.179688 65.644531 C 92.488281 63.710938 99.90625 57 98.316406 52.632812 C 96.726562 48.265625 86.734375 47.894531 81.421875 49.824219 C 76.109375 51.757812 74.214844 56.457031 75.804688 60.828125 C 77.394531 65.195312 81.867188 67.578125 87.179688 65.644531 Z M 87.179688 65.644531 "/>
</g>
<mask id="mask3">
  <g filter="url(#alpha)">
<rect x="0" y="0" width="100" height="100" style="fill:rgb(0%,0%,0%);fill-opacity:0.101961;stroke:none;"/>
  </g>
</mask>
<clipPath id="clip4">
  <rect x="0" y="0" width="100" height="100"/>
</clipPath>
<g id="surface14" clip-path="url(#clip4)">
<path style=" stroke:none;fill-rule:nonzero;fill:rgb(0%,0%,0%);fill-opacity:1;" d="M 81.421875 49.824219 C 83.375 49.113281 85.960938 48.714844 88.53125 48.714844 C 89.457031 54.546875 89.511719 60.144531 88.707031 64.984375 C 88.1875 65.242188 87.671875 65.464844 87.179688 65.644531 C 81.867188 67.578125 77.394531 65.195312 75.804688 60.828125 C 74.214844 56.457031 76.109375 51.757812 81.421875 49.824219 Z M 81.421875 49.824219 "/>
</g>
<mask id="mask4">
  <g filter="url(#alpha)">
<rect x="0" y="0" width="100" height="100" style="fill:rgb(0%,0%,0%);fill-opacity:0.101961;stroke:none;"/>
  </g>
</mask>
<clipPath id="clip5">
  <rect x="0" y="0" width="100" height="100"/>
</clipPath>
<g id="surface17" clip-path="url(#clip5)">
<path style=" stroke:none;fill-rule:nonzero;fill:rgb(0%,0%,0%);fill-opacity:1;" d="M 51.140625 51.347656 C 47.296875 49.90625 46.105469 42.863281 47.769531 40.332031 C 45.632812 40.8125 44 42.199219 44.472656 45.589844 C 44.992188 49.316406 47.582031 51.503906 50 51.503906 C 50.378906 51.503906 50.761719 51.453125 51.140625 51.347656 Z M 51.140625 51.347656 "/>
</g>
<mask id="mask5">
  <g filter="url(#alpha)">
<rect x="0" y="0" width="100" height="100" style="fill:rgb(0%,0%,0%);fill-opacity:0.101961;stroke:none;"/>
  </g>
</mask>
<clipPath id="clip6">
  <rect x="0" y="0" width="100" height="100"/>
</clipPath>
<g id="surface20" clip-path="url(#clip6)">
<path style=" stroke:none;fill-rule:nonzero;fill:rgb(0%,0%,0%);fill-opacity:1;" d="M 36.9375 14.363281 C 17.378906 23.664062 10.652344 53.15625 15.210938 68.199219 C 19.367188 81.921875 33.058594 85.339844 50 85.339844 C 56.753906 85.339844 62.988281 84.796875 68.3125 83.273438 C 27.871094 84.886719 27.429688 32.898438 36.9375 14.363281 Z M 36.9375 14.363281 "/>
</g>
</defs>
<g id="surface1">
<path style=" stroke:none;fill-rule:nonzero;fill:rgb(27.45098%,30.196078%,34.901961%);fill-opacity:1;" d="M 12.820312 65.644531 C 7.507812 63.710938 0.0898438 57 1.679688 52.632812 C 3.269531 48.265625 13.265625 47.894531 18.578125 49.824219 C 23.890625 51.757812 25.785156 56.457031 24.195312 60.828125 C 22.605469 65.195312 18.132812 67.578125 12.820312 65.644531 Z M 12.820312 65.644531 "/>
<use xlink:href="#surface5" mask="url(#mask0)"/>
<use xlink:href="#surface8" mask="url(#mask1)"/>
<path style=" stroke:none;fill-rule:nonzero;fill:rgb(27.45098%,30.196078%,34.901961%);fill-opacity:1;" d="M 87.179688 65.644531 C 92.488281 63.710938 99.90625 57 98.316406 52.632812 C 96.726562 48.265625 86.734375 47.894531 81.421875 49.824219 C 76.109375 51.757812 74.214844 56.457031 75.804688 60.828125 C 77.394531 65.195312 81.867188 67.578125 87.179688 65.644531 Z M 87.179688 65.644531 "/>
<use xlink:href="#surface11" mask="url(#mask2)"/>
<use xlink:href="#surface14" mask="url(#mask3)"/>
<path style=" stroke:none;fill-rule:nonzero;fill:rgb(27.45098%,30.196078%,34.901961%);fill-opacity:1;" d="M 50 85.339844 C 66.941406 85.339844 80.632812 81.921875 84.789062 68.199219 C 90.246094 50.191406 79.535156 11.480469 50 11.480469 C 20.464844 11.480469 9.753906 50.191406 15.210938 68.199219 C 19.367188 81.921875 33.058594 85.339844 50 85.339844 Z M 50 85.339844 "/>
<path style=" stroke:none;fill-rule:nonzero;fill:rgb(100%,100%,100%);fill-opacity:1;" d="M 70.871094 58.816406 C 69.835938 56.707031 70.273438 54.1875 71.925781 52.515625 C 74.757812 49.648438 76.472656 45.679688 76.363281 41.308594 C 76.164062 33.175781 69.546875 26.53125 61.417969 26.300781 C 57.773438 26.195312 54.40625 27.355469 51.722656 29.378906 C 50.707031 30.140625 49.292969 30.140625 48.277344 29.378906 C 45.59375 27.355469 42.226562 26.195312 38.582031 26.300781 C 30.453125 26.53125 23.835938 33.175781 23.636719 41.308594 C 23.527344 45.679688 25.242188 49.648438 28.074219 52.515625 C 29.726562 54.1875 30.160156 56.707031 29.128906 58.816406 C 26.066406 65.0625 24.125 72.402344 23.257812 79.433594 C 29.785156 83.960938 39.238281 85.339844 50 85.339844 C 60.761719 85.339844 70.210938 83.960938 76.742188 79.433594 C 75.875 72.402344 73.933594 65.0625 70.871094 58.816406 Z M 70.871094 58.816406 "/>
<path style=" stroke:none;fill-rule:nonzero;fill:rgb(94.509804%,77.647059%,31.372549%);fill-opacity:1;" d="M 50 51.503906 C 52.417969 51.503906 55.007812 49.316406 55.527344 45.589844 C 56.15625 41.074219 53.050781 40.113281 50 40.113281 C 46.945312 40.113281 43.84375 41.074219 44.472656 45.589844 C 44.992188 49.316406 47.582031 51.503906 50 51.503906 Z M 50 51.503906 "/>
<use xlink:href="#surface17" mask="url(#mask4)"/>
<path style=" stroke:none;fill-rule:nonzero;fill:rgb(94.901961%,44.705882%,50.588235%);fill-opacity:1;" d="M 39.488281 42.773438 C 39.488281 40.492188 37.167969 38.644531 34.308594 38.644531 C 31.445312 38.644531 29.125 40.492188 29.125 42.773438 C 29.125 45.050781 31.445312 46.898438 34.308594 46.898438 C 37.167969 46.898438 39.488281 45.050781 39.488281 42.773438 Z M 39.488281 42.773438 "/>
<path style=" stroke:none;fill-rule:nonzero;fill:rgb(94.901961%,44.705882%,50.588235%);fill-opacity:1;" d="M 70.875 42.773438 C 70.875 40.492188 68.554688 38.644531 65.695312 38.644531 C 62.832031 38.644531 60.511719 40.492188 60.511719 42.773438 C 60.511719 45.050781 62.832031 46.898438 65.695312 46.898438 C 68.554688 46.898438 70.875 45.050781 70.875 42.773438 Z M 70.875 42.773438 "/>
<use xlink:href="#surface20" mask="url(#mask5)"/>
<path style=" stroke:none;fill-rule:nonzero;fill:rgb(94.509804%,77.647059%,31.372549%);fill-opacity:1;" d="M 42.867188 88.519531 L 36.652344 88.519531 C 34.769531 88.519531 33.242188 86.992188 33.242188 85.109375 C 33.242188 83.226562 34.765625 81.699219 36.652344 81.699219 L 42.867188 81.699219 C 44.75 81.699219 46.277344 83.226562 46.277344 85.109375 C 46.277344 86.992188 44.75 88.519531 42.867188 88.519531 Z M 42.867188 88.519531 "/>
<path style=" stroke:none;fill-rule:nonzero;fill:rgb(94.509804%,77.647059%,31.372549%);fill-opacity:1;" d="M 57.132812 88.519531 L 63.347656 88.519531 C 65.230469 88.519531 66.757812 86.992188 66.757812 85.109375 C 66.757812 83.226562 65.230469 81.699219 63.347656 81.699219 L 57.132812 81.699219 C 55.25 81.699219 53.722656 83.226562 53.722656 85.109375 C 53.722656 86.992188 55.25 88.519531 57.132812 88.519531 Z M 57.132812 88.519531 "/>
<path style=" stroke:none;fill-rule:nonzero;fill:rgb(0%,0%,0%);fill-opacity:1;" d="M 99.695312 52.132812 C 98.257812 48.1875 92.15625 46.910156 86.601562 47.320312 C 85.582031 41.851562 83.8125 36.367188 81.363281 31.484375 C 81 30.761719 80.117188 30.46875 79.394531 30.832031 C 78.671875 31.191406 78.378906 32.074219 78.742188 32.796875 C 83.960938 43.199219 85.972656 56.414062 83.898438 65.804688 C 83.890625 65.832031 83.886719 65.863281 83.878906 65.890625 C 83.734375 66.539062 83.574219 67.167969 83.390625 67.773438 C 82.28125 71.429688 80.457031 74.363281 77.835938 76.707031 C 76.769531 69.9375 74.835938 63.570312 72.1875 58.171875 C 71.433594 56.636719 71.75 54.777344 72.96875 53.542969 C 76.214844 50.253906 77.941406 45.898438 77.828125 41.269531 C 77.722656 36.960938 75.972656 32.890625 72.902344 29.808594 C 69.832031 26.722656 65.769531 24.957031 61.460938 24.835938 C 57.59375 24.726562 53.921875 25.890625 50.839844 28.207031 C 50.347656 28.578125 49.65625 28.578125 49.160156 28.207031 C 46.078125 25.890625 42.40625 24.722656 38.539062 24.835938 C 34.230469 24.957031 30.167969 26.722656 27.097656 29.808594 C 24.027344 32.890625 22.277344 36.960938 22.171875 41.269531 C 22.058594 45.898438 23.785156 50.253906 27.03125 53.542969 C 28.25 54.777344 28.566406 56.636719 27.8125 58.171875 C 26.890625 60.054688 26.039062 62.089844 25.289062 64.21875 C 25.019531 64.980469 25.417969 65.816406 26.183594 66.085938 C 26.945312 66.355469 27.78125 65.957031 28.050781 65.191406 C 28.765625 63.171875 29.570312 61.242188 30.441406 59.460938 C 31.742188 56.808594 31.210938 53.605469 29.117188 51.484375 C 26.433594 48.769531 25.007812 45.167969 25.101562 41.34375 C 25.1875 37.789062 26.632812 34.425781 29.171875 31.875 C 31.710938 29.324219 35.070312 27.863281 38.625 27.761719 C 41.820312 27.671875 44.855469 28.632812 47.398438 30.546875 C 48.929688 31.699219 51.070312 31.699219 52.601562 30.546875 C 55.144531 28.632812 58.179688 27.671875 61.375 27.761719 C 64.929688 27.863281 68.289062 29.324219 70.828125 31.875 C 73.367188 34.425781 74.8125 37.789062 74.898438 41.34375 C 74.992188 45.164062 73.566406 48.769531 70.882812 51.484375 C 68.789062 53.605469 68.257812 56.808594 69.558594 59.460938 C 72.238281 64.925781 74.214844 71.734375 75.167969 78.71875 C 72.929688 80.140625 70.285156 81.246094 67.15625 82.070312 C 66.261719 80.953125 64.886719 80.234375 63.347656 80.234375 L 57.132812 80.234375 C 54.878906 80.234375 52.980469 81.769531 52.421875 83.847656 C 50.832031 83.882812 49.167969 83.882812 47.578125 83.847656 C 47.019531 81.769531 45.121094 80.234375 42.867188 80.234375 L 36.652344 80.234375 C 35.113281 80.234375 33.738281 80.953125 32.84375 82.070312 C 29.714844 81.246094 27.066406 80.136719 24.828125 78.71875 C 25.160156 76.273438 25.617188 73.84375 26.191406 71.480469 C 26.382812 70.691406 25.902344 69.902344 25.113281 69.710938 C 24.328125 69.519531 23.535156 70.003906 23.34375 70.789062 C 22.875 72.726562 22.480469 74.710938 22.164062 76.707031 C 19.542969 74.363281 17.71875 71.429688 16.609375 67.773438 C 16.425781 67.15625 16.257812 66.511719 16.109375 65.84375 C 16.109375 65.839844 16.109375 65.832031 16.109375 65.828125 C 15.09375 61.21875 15.019531 55.417969 15.980469 49.34375 C 16.003906 49.261719 16.027344 49.179688 16.035156 49.09375 C 16.042969 49.039062 16.046875 48.988281 16.046875 48.933594 C 17.351562 41.0625 20.394531 32.765625 25.398438 26.019531 C 29.824219 20.054688 37.683594 12.945312 50 12.945312 C 63.015625 12.945312 71.109375 20.824219 75.605469 27.433594 C 76.058594 28.101562 76.96875 28.273438 77.640625 27.820312 C 78.308594 27.363281 78.480469 26.453125 78.027344 25.785156 C 71.007812 15.46875 61.316406 10.015625 50 10.015625 C 39.289062 10.015625 29.96875 14.945312 23.046875 24.273438 C 18.460938 30.457031 15.039062 38.554688 13.417969 47.074219 C 13.402344 47.15625 13.390625 47.238281 13.375 47.316406 C 7.828125 46.910156 1.738281 48.191406 0.304688 52.132812 C -0.613281 54.652344 0.554688 57.824219 3.597656 61.054688 C 6.058594 63.671875 9.402344 65.957031 12.320312 67.019531 C 12.699219 67.15625 13.082031 67.277344 13.464844 67.378906 C 13.570312 67.800781 13.683594 68.21875 13.808594 68.621094 C 16.316406 76.902344 22.207031 82.207031 31.785156 84.816406 C 31.78125 84.914062 31.777344 85.011719 31.777344 85.109375 C 31.777344 87.796875 33.964844 89.984375 36.652344 89.984375 L 42.867188 89.984375 C 44.972656 89.984375 46.769531 88.644531 47.449219 86.777344 C 48.285156 86.792969 49.136719 86.804688 50 86.804688 C 50.863281 86.804688 51.714844 86.792969 52.550781 86.777344 C 53.234375 88.644531 55.027344 89.984375 57.132812 89.984375 L 63.347656 89.984375 C 66.039062 89.984375 68.222656 87.796875 68.222656 85.109375 C 68.222656 85.011719 68.21875 84.914062 68.214844 84.816406 C 77.796875 82.207031 83.683594 76.902344 86.191406 68.621094 C 86.316406 68.214844 86.425781 67.800781 86.535156 67.378906 C 86.917969 67.277344 87.300781 67.15625 87.679688 67.019531 C 90.597656 65.957031 93.941406 63.671875 96.402344 61.054688 C 99.445312 57.824219 100.613281 54.65625 99.695312 52.132812 Z M 12.816406 64.070312 C 10.449219 63.089844 7.722656 61.164062 5.730469 59.046875 C 3.550781 56.734375 2.554688 54.523438 3.058594 53.132812 C 3.789062 51.121094 8.050781 49.910156 12.90625 50.222656 C 12.238281 55.128906 12.214844 59.90625 12.816406 64.070312 Z M 44.804688 85.242188 C 44.738281 86.253906 43.894531 87.054688 42.867188 87.054688 L 36.652344 87.054688 C 35.578125 87.054688 34.707031 86.183594 34.707031 85.109375 C 34.707031 84.039062 35.578125 83.164062 36.652344 83.164062 L 42.867188 83.164062 C 43.9375 83.164062 44.808594 84.035156 44.8125 85.101562 L 44.804688 85.207031 C 44.804688 85.21875 44.804688 85.230469 44.804688 85.242188 Z M 63.347656 87.054688 L 57.132812 87.054688 C 56.105469 87.054688 55.261719 86.253906 55.191406 85.242188 C 55.191406 85.230469 55.195312 85.21875 55.191406 85.207031 L 55.1875 85.109375 C 55.1875 84.039062 56.058594 83.164062 57.132812 83.164062 L 63.347656 83.164062 C 64.421875 83.164062 65.292969 84.039062 65.292969 85.109375 C 65.292969 86.183594 64.421875 87.054688 63.347656 87.054688 Z M 87.183594 64.070312 C 87.800781 59.847656 87.742188 55.085938 87.074219 50.222656 C 91.9375 49.910156 96.207031 51.117188 96.941406 53.132812 C 98.03125 56.125 92.1875 62.003906 87.183594 64.070312 Z M 36.324219 38.28125 C 36.324219 37.730469 36.773438 37.28125 37.328125 37.28125 C 37.878906 37.28125 38.328125 37.730469 38.328125 38.28125 C 38.328125 39.089844 38.984375 39.746094 39.792969 39.746094 C 40.601562 39.746094 41.257812 39.089844 41.257812 38.28125 C 41.257812 36.113281 39.492188 34.351562 37.328125 34.351562 C 35.160156 34.351562 33.394531 36.113281 33.394531 38.28125 C 33.394531 39.089844 34.050781 39.746094 34.859375 39.746094 C 35.667969 39.746094 36.324219 39.089844 36.324219 38.28125 Z M 61.671875 38.28125 C 61.671875 37.730469 62.121094 37.28125 62.671875 37.28125 C 63.226562 37.28125 63.675781 37.730469 63.675781 38.28125 C 63.675781 39.089844 64.328125 39.746094 65.140625 39.746094 C 65.949219 39.746094 66.605469 39.089844 66.605469 38.28125 C 66.605469 36.113281 64.839844 34.351562 62.671875 34.351562 C 60.503906 34.351562 58.742188 36.113281 58.742188 38.28125 C 58.742188 39.089844 59.398438 39.746094 60.207031 39.746094 C 61.015625 39.746094 61.671875 39.089844 61.671875 38.28125 Z M 50 52.96875 C 52.96875 52.96875 56.320312 50.503906 56.976562 45.792969 C 57.273438 43.65625 56.878906 41.945312 55.796875 40.703125 C 54.609375 39.339844 52.660156 38.648438 50 38.648438 C 47.339844 38.648438 45.386719 39.339844 44.203125 40.703125 C 43.121094 41.945312 42.722656 43.65625 43.023438 45.792969 C 43.679688 50.503906 47.03125 52.96875 50 52.96875 Z M 46.410156 42.628906 C 47.015625 41.933594 48.222656 41.578125 50 41.578125 C 51.773438 41.578125 52.980469 41.933594 53.589844 42.628906 C 54.085938 43.203125 54.25 44.128906 54.074219 45.386719 C 53.65625 48.410156 51.660156 50.039062 50 50.039062 C 48.339844 50.039062 46.34375 48.410156 45.921875 45.386719 C 45.75 44.128906 45.914062 43.203125 46.410156 42.628906 Z M 46.410156 42.628906 "/>
</g>
</svg>
