<?xml version="1.0" encoding="UTF-8"?>
<svg xmlns="http://www.w3.org/2000/svg" xmlns:xlink="http://www.w3.org/1999/xlink" width="200pt" height="200pt" viewBox="0 0 200 200" version="1.1">
<g id="surface1">
<path style=" stroke:none;fill-rule:nonzero;fill:rgb(0%,0%,0%);fill-opacity:1;" d="M 199.390625 104.265625 C 196.519531 96.375 184.3125 93.816406 173.207031 94.640625 C 171.167969 83.703125 167.621094 72.730469 162.722656 62.964844 C 161.996094 61.519531 160.238281 60.933594 158.789062 61.660156 C 157.34375 62.386719 156.761719 64.148438 157.484375 65.59375 C 167.921875 86.402344 171.945312 112.824219 167.796875 131.609375 C 167.785156 131.667969 167.773438 131.726562 167.761719 131.785156 C 167.472656 133.074219 167.144531 134.332031 166.777344 135.546875 C 164.5625 142.863281 160.917969 148.722656 155.671875 153.417969 C 153.539062 139.871094 149.671875 127.140625 144.375 116.34375 C 142.871094 113.277344 143.496094 109.554688 145.933594 107.089844 C 152.433594 100.511719 155.886719 91.792969 155.65625 82.542969 C 155.445312 73.925781 151.945312 65.78125 145.804688 59.617188 C 139.664062 53.449219 131.535156 49.917969 122.917969 49.667969 C 115.1875 49.449219 107.84375 51.777344 101.679688 56.410156 C 100.691406 57.15625 99.308594 57.15625 98.320312 56.410156 C 92.160156 51.78125 84.816406 49.449219 77.082031 49.667969 C 68.464844 49.917969 60.335938 53.449219 54.195312 59.617188 C 48.054688 65.78125 44.554688 73.925781 44.34375 82.542969 C 44.113281 91.792969 47.566406 100.511719 54.066406 107.089844 C 56.503906 109.554688 57.128906 113.273438 55.625 116.34375 C 53.78125 120.105469 52.082031 124.175781 50.578125 128.4375 C 50.039062 129.960938 50.839844 131.636719 52.363281 132.171875 C 53.890625 132.710938 55.5625 131.910156 56.101562 130.386719 C 57.53125 126.339844 59.140625 122.484375 60.886719 118.921875 C 63.488281 113.621094 62.421875 107.207031 58.234375 102.96875 C 52.863281 97.535156 50.011719 90.332031 50.199219 82.6875 C 50.375 75.574219 53.269531 68.851562 58.347656 63.75 C 63.425781 58.652344 70.136719 55.730469 77.246094 55.527344 C 83.640625 55.339844 89.707031 57.269531 94.796875 61.09375 C 97.859375 63.398438 102.140625 63.398438 105.203125 61.09375 C 110.289062 57.269531 116.363281 55.339844 122.75 55.527344 C 129.863281 55.730469 136.574219 58.648438 141.652344 63.75 C 146.730469 68.847656 149.625 75.574219 149.800781 82.6875 C 149.988281 90.332031 147.136719 97.535156 141.765625 102.96875 C 137.578125 107.207031 136.511719 113.617188 139.113281 118.921875 C 144.476562 129.855469 148.433594 143.46875 150.335938 157.4375 C 145.863281 160.277344 140.570312 162.492188 134.3125 164.140625 C 132.523438 161.90625 129.777344 160.46875 126.699219 160.46875 L 114.261719 160.46875 C 109.757812 160.46875 105.960938 163.539062 104.847656 167.695312 C 101.664062 167.765625 98.332031 167.765625 95.152344 167.695312 C 94.039062 163.539062 90.238281 160.46875 85.738281 160.46875 L 73.300781 160.46875 C 70.222656 160.46875 67.476562 161.90625 65.6875 164.140625 C 59.429688 162.488281 54.136719 160.277344 49.660156 157.433594 C 50.324219 152.546875 51.238281 147.6875 52.386719 142.957031 C 52.765625 141.386719 51.800781 139.800781 50.230469 139.421875 C 48.65625 139.039062 47.074219 140.003906 46.691406 141.578125 C 45.75 145.457031 44.960938 149.421875 44.328125 153.417969 C 39.085938 148.722656 35.4375 142.859375 33.222656 135.546875 C 32.851562 134.3125 32.515625 133.023438 32.222656 131.6875 C 32.21875 131.675781 32.21875 131.667969 32.214844 131.65625 C 30.191406 122.4375 30.039062 110.835938 31.960938 98.683594 C 32.011719 98.523438 32.050781 98.355469 32.074219 98.183594 C 32.085938 98.078125 32.09375 97.972656 32.09375 97.867188 C 34.703125 82.125 40.789062 65.527344 50.796875 52.039062 C 59.648438 40.109375 75.371094 25.890625 100 25.890625 C 126.035156 25.890625 142.21875 41.644531 151.210938 54.863281 C 152.117188 56.203125 153.941406 56.546875 155.28125 55.636719 C 156.617188 54.726562 156.964844 52.90625 156.054688 51.566406 C 142.019531 30.9375 122.636719 20.03125 100 20.03125 C 78.574219 20.03125 59.933594 29.894531 46.09375 48.546875 C 36.917969 60.910156 30.082031 77.105469 26.839844 94.144531 C 26.808594 94.308594 26.78125 94.472656 26.75 94.636719 C 15.65625 93.824219 3.476562 96.382812 0.609375 104.261719 C -1.226562 109.308594 1.113281 115.644531 7.195312 122.109375 C 12.121094 127.34375 18.804688 131.914062 24.640625 134.039062 C 25.398438 134.3125 26.164062 134.550781 26.929688 134.753906 C 27.144531 135.601562 27.371094 136.433594 27.617188 137.242188 C 32.628906 153.800781 44.410156 164.417969 63.570312 169.636719 C 63.5625 169.828125 63.554688 170.023438 63.554688 170.21875 C 63.554688 175.59375 67.925781 179.96875 73.300781 179.96875 L 85.738281 179.96875 C 89.945312 179.96875 93.535156 177.289062 94.898438 173.550781 C 96.570312 173.585938 98.273438 173.609375 100 173.609375 C 101.726562 173.609375 103.429688 173.585938 105.101562 173.550781 C 106.464844 177.289062 110.058594 179.96875 114.261719 179.96875 L 126.699219 179.96875 C 132.074219 179.96875 136.449219 175.59375 136.449219 170.21875 C 136.449219 170.023438 136.441406 169.828125 136.429688 169.636719 C 155.589844 164.417969 167.371094 153.800781 172.386719 137.242188 C 172.632812 136.433594 172.855469 135.597656 173.066406 134.757812 C 173.835938 134.550781 174.601562 134.316406 175.359375 134.039062 C 181.195312 131.914062 187.878906 127.34375 192.808594 122.109375 C 198.886719 115.648438 201.226562 109.308594 199.390625 104.265625 Z M 25.632812 128.140625 C 20.898438 126.179688 15.445312 122.332031 11.460938 118.09375 C 7.105469 113.464844 5.105469 109.042969 6.117188 106.269531 C 7.582031 102.242188 16.101562 99.824219 25.8125 100.441406 C 24.480469 110.253906 24.425781 119.8125 25.632812 128.140625 Z M 89.613281 170.414062 C 89.609375 170.441406 89.613281 170.464844 89.613281 170.488281 C 89.476562 172.507812 87.792969 174.109375 85.738281 174.109375 L 73.300781 174.109375 C 71.15625 174.109375 69.410156 172.367188 69.410156 170.222656 C 69.410156 168.078125 71.15625 166.332031 73.300781 166.332031 L 85.738281 166.332031 C 87.875 166.332031 89.617188 168.070312 89.625 170.207031 Z M 126.699219 174.109375 L 114.261719 174.109375 C 112.207031 174.109375 110.523438 172.507812 110.386719 170.484375 C 110.386719 170.460938 110.386719 170.4375 110.386719 170.410156 L 110.375 170.222656 C 110.375 168.078125 112.117188 166.332031 114.261719 166.332031 L 126.699219 166.332031 C 128.84375 166.332031 130.585938 168.078125 130.585938 170.222656 C 130.585938 172.367188 128.84375 174.109375 126.699219 174.109375 Z M 174.367188 128.140625 C 175.597656 119.699219 175.488281 110.175781 174.148438 100.445312 C 183.875 99.816406 192.417969 102.238281 193.882812 106.269531 C 196.058594 112.246094 184.375 124.011719 174.367188 128.140625 Z M 174.367188 128.140625 "/>
<path style=" stroke:none;fill-rule:nonzero;fill:rgb(0%,0%,0%);fill-opacity:1;" d="M 123.34375 76.5625 C 123.34375 75.460938 124.242188 74.5625 125.34375 74.5625 C 126.449219 74.5625 127.347656 75.460938 127.347656 76.5625 C 127.347656 78.183594 128.660156 79.492188 130.277344 79.492188 C 131.898438 79.492188 133.207031 78.183594 133.207031 76.5625 C 133.207031 72.226562 129.679688 68.699219 125.34375 68.699219 C 121.007812 68.699219 117.480469 72.226562 117.480469 76.5625 C 117.480469 78.183594 118.792969 79.492188 120.410156 79.492188 C 122.03125 79.492188 123.34375 78.183594 123.34375 76.5625 Z M 123.34375 76.5625 "/>
<path style=" stroke:none;fill-rule:nonzero;fill:rgb(0%,0%,0%);fill-opacity:1;" d="M 100 105.941406 C 105.941406 105.941406 112.640625 101.007812 113.953125 91.585938 C 114.550781 87.316406 113.757812 83.890625 111.597656 81.410156 C 109.222656 78.679688 105.320312 77.296875 100 77.296875 C 94.679688 77.296875 90.777344 78.679688 88.402344 81.410156 C 86.242188 83.890625 85.449219 87.316406 86.042969 91.585938 C 87.359375 101.007812 94.058594 105.941406 100 105.941406 Z M 92.824219 85.257812 C 94.035156 83.863281 96.449219 83.15625 100 83.15625 C 103.550781 83.15625 105.964844 83.863281 107.175781 85.257812 C 108.175781 86.402344 108.503906 88.261719 108.152344 90.777344 C 107.308594 96.820312 103.324219 100.082031 100 100.082031 C 96.675781 100.082031 92.691406 96.820312 91.847656 90.777344 C 91.496094 88.261719 91.824219 86.402344 92.824219 85.257812 Z M 92.824219 85.257812 "/>
<path style=" stroke:none;fill-rule:nonzero;fill:rgb(0%,0%,0%);fill-opacity:1;" d="M 72.648438 76.5625 C 72.648438 75.460938 73.546875 74.5625 74.652344 74.5625 C 75.757812 74.5625 76.65625 75.460938 76.65625 76.5625 C 76.65625 78.183594 77.96875 79.492188 79.585938 79.492188 C 81.203125 79.492188 82.515625 78.183594 82.515625 76.5625 C 82.515625 72.226562 78.988281 68.699219 74.652344 68.699219 C 70.316406 68.699219 66.789062 72.226562 66.789062 76.5625 C 66.789062 78.183594 68.101562 79.492188 69.71875 79.492188 C 71.335938 79.492188 72.648438 78.183594 72.648438 76.5625 Z M 72.648438 76.5625 "/>
</g>
</svg>
