<?xml version="1.0" encoding="UTF-8"?>
<svg xmlns="http://www.w3.org/2000/svg" xmlns:xlink="http://www.w3.org/1999/xlink" width="32px" height="32px" viewBox="0 0 32 32" version="1.1">
<g id="surface1">
<path style=" stroke:none;fill-rule:nonzero;fill:rgb(0%,0%,0%);fill-opacity:1;" d="M 31.726562 0.273438 C 31.460938 0.0078125 31.0625 -0.0703125 30.714844 0.0664062 L 0.589844 12.117188 C 0.246094 12.253906 0.015625 12.582031 0 12.953125 C -0.0117188 13.324219 0.195312 13.667969 0.527344 13.832031 L 12.40625 19.59375 L 18.167969 31.472656 C 18.324219 31.796875 18.652344 32 19.011719 32 C 19.023438 32 19.035156 32 19.046875 32 C 19.417969 31.984375 19.746094 31.753906 19.882812 31.410156 L 31.933594 1.285156 C 32.070312 0.9375 31.992188 0.539062 31.726562 0.273438 Z M 3.257812 13.070312 L 27.171875 3.503906 L 12.917969 17.757812 Z M 18.929688 28.742188 L 14.242188 19.082031 L 28.496094 4.828125 Z M 18.929688 28.742188 "/>
</g>
</svg>
