<?xml version="1.0" encoding="UTF-8"?>
<svg xmlns="http://www.w3.org/2000/svg" xmlns:xlink="http://www.w3.org/1999/xlink" width="32px" height="30px" viewBox="0 0 32 32" version="1.1">
<g id="surface1">
<path style=" stroke:none;fill-rule:nonzero;fill:rgb(0%,0%,0%);fill-opacity:1;" d="M 17.917969 27.507812 L 14.375 27.507812 C 12.136719 27.507812 9.964844 26.707031 8.269531 25.246094 C 8.070312 25.074219 8.046875 24.773438 8.21875 24.574219 C 8.390625 24.375 8.691406 24.351562 8.890625 24.523438 C 10.414062 25.832031 12.363281 26.554688 14.375 26.554688 L 17.917969 26.554688 C 19.933594 26.554688 21.878906 25.832031 23.40625 24.523438 C 23.605469 24.351562 23.90625 24.375 24.078125 24.574219 C 24.25 24.773438 24.226562 25.074219 24.027344 25.246094 C 22.328125 26.703125 20.160156 27.507812 17.917969 27.507812 Z M 17.917969 27.507812 "/>
<path style=" stroke:none;fill-rule:nonzero;fill:rgb(0%,0%,0%);fill-opacity:1;" d="M 8.578125 25.359375 C 8.46875 25.359375 8.359375 25.320312 8.269531 25.246094 C 7.050781 24.195312 6.121094 22.859375 5.570312 21.359375 C 4.292969 21.230469 2.300781 20.601562 1.175781 18.070312 C 0.75 17.117188 1.160156 15.988281 2.085938 15.554688 C 2.847656 15.195312 3.828125 15.066406 4.996094 15.175781 C 5.03125 9.054688 10.019531 4.085938 16.148438 4.085938 C 22.269531 4.085938 27.253906 9.046875 27.296875 15.15625 C 28.347656 15.09375 29.226562 15.226562 29.925781 15.554688 C 30.855469 15.988281 31.261719 17.117188 30.839844 18.070312 C 29.777344 20.457031 27.925781 21.136719 26.738281 21.320312 C 26.191406 22.835938 25.257812 24.1875 24.027344 25.246094 C 23.878906 25.371094 23.664062 25.398438 23.492188 25.304688 C 23.320312 25.210938 23.21875 25.023438 23.242188 24.828125 C 23.5 22.570312 22.855469 20.253906 21.328125 17.941406 C 21.257812 17.835938 21.234375 17.699219 21.261719 17.574219 C 21.292969 17.445312 21.371094 17.335938 21.484375 17.269531 C 22.75 16.523438 23.535156 15.152344 23.535156 13.691406 C 23.535156 11.398438 21.671875 9.535156 19.378906 9.535156 C 18.289062 9.535156 17.261719 9.953125 16.480469 10.710938 C 16.292969 10.894531 16 10.894531 15.816406 10.710938 C 15.035156 9.953125 14.003906 9.535156 12.917969 9.535156 C 10.625 9.535156 8.761719 11.398438 8.761719 13.691406 C 8.761719 15.152344 9.546875 16.523438 10.808594 17.269531 C 10.921875 17.335938 11.003906 17.445312 11.03125 17.574219 C 11.0625 17.699219 11.039062 17.835938 10.964844 17.941406 C 9.4375 20.257812 8.792969 22.574219 9.054688 24.828125 C 9.074219 25.023438 8.976562 25.214844 8.804688 25.304688 C 8.734375 25.34375 8.65625 25.359375 8.578125 25.359375 Z M 4.222656 16.09375 C 3.535156 16.09375 2.945312 16.203125 2.492188 16.414062 C 2.03125 16.632812 1.832031 17.199219 2.046875 17.683594 C 3.011719 19.855469 4.695312 20.375 5.9375 20.429688 C 6.136719 20.4375 6.308594 20.566406 6.371094 20.757812 C 6.726562 21.835938 7.296875 22.832031 8.046875 23.6875 C 8.078125 21.738281 8.703125 19.773438 9.914062 17.820312 C 8.601562 16.863281 7.808594 15.324219 7.808594 13.691406 C 7.808594 10.871094 10.097656 8.578125 12.917969 8.578125 C 14.105469 8.578125 15.234375 8.984375 16.148438 9.730469 C 17.058594 8.984375 18.191406 8.578125 19.378906 8.578125 C 22.195312 8.578125 24.488281 10.871094 24.488281 13.691406 C 24.488281 15.324219 23.691406 16.863281 22.382812 17.820312 C 23.589844 19.773438 24.214844 21.738281 24.25 23.6875 C 25.003906 22.828125 25.578125 21.824219 25.929688 20.738281 C 25.988281 20.558594 26.148438 20.429688 26.339844 20.410156 C 27.488281 20.300781 29.054688 19.734375 29.96875 17.683594 C 30.183594 17.199219 29.984375 16.632812 29.523438 16.414062 C 28.882812 16.113281 27.964844 16.023438 26.875 16.152344 C 26.742188 16.167969 26.605469 16.125 26.503906 16.035156 C 26.402344 15.945312 26.34375 15.816406 26.34375 15.679688 L 26.34375 15.234375 C 26.34375 9.613281 21.769531 5.039062 16.148438 5.039062 C 10.523438 5.039062 5.949219 9.613281 5.949219 15.234375 L 5.949219 15.714844 C 5.949219 15.851562 5.890625 15.984375 5.785156 16.074219 C 5.679688 16.164062 5.542969 16.207031 5.40625 16.1875 C 4.984375 16.125 4.589844 16.09375 4.222656 16.09375 Z M 4.222656 16.09375 "/>
<path style=" stroke:none;fill-rule:nonzero;fill:rgb(0%,0%,0%);fill-opacity:1;" d="M 20.28125 17.117188 C 19.363281 17.117188 18.613281 16.378906 18.613281 15.46875 C 18.613281 14.558594 19.363281 13.820312 20.28125 13.820312 C 21.203125 13.820312 21.949219 14.558594 21.949219 15.46875 C 21.949219 16.378906 21.203125 17.117188 20.28125 17.117188 Z M 20.28125 14.773438 C 19.886719 14.773438 19.566406 15.085938 19.566406 15.46875 C 19.566406 15.851562 19.886719 16.164062 20.28125 16.164062 C 20.675781 16.164062 20.996094 15.851562 20.996094 15.46875 C 20.996094 15.085938 20.675781 14.773438 20.28125 14.773438 Z M 20.28125 14.773438 "/>
<path style=" stroke:none;fill-rule:nonzero;fill:rgb(0%,0%,0%);fill-opacity:1;" d="M 12.179688 17.117188 C 11.257812 17.117188 10.511719 16.378906 10.511719 15.46875 C 10.511719 14.558594 11.257812 13.820312 12.179688 13.820312 C 13.097656 13.820312 13.847656 14.558594 13.847656 15.46875 C 13.847656 16.378906 13.097656 17.117188 12.179688 17.117188 Z M 12.179688 14.773438 C 11.785156 14.773438 11.464844 15.085938 11.464844 15.46875 C 11.464844 15.851562 11.785156 16.164062 12.179688 16.164062 C 12.574219 16.164062 12.894531 15.851562 12.894531 15.46875 C 12.894531 15.085938 12.574219 14.773438 12.179688 14.773438 Z M 12.179688 14.773438 "/>
<path style=" stroke:none;fill-rule:nonzero;fill:rgb(0%,0%,0%);fill-opacity:1;" d="M 16.433594 17.957031 L 16.027344 17.957031 C 15.089844 17.957031 14.324219 17.195312 14.324219 16.253906 L 14.324219 14.773438 C 14.324219 14.511719 14.535156 14.296875 14.800781 14.296875 L 17.660156 14.296875 C 17.921875 14.296875 18.136719 14.511719 18.136719 14.773438 L 18.136719 16.253906 C 18.136719 17.195312 17.371094 17.957031 16.433594 17.957031 Z M 15.277344 15.25 L 15.277344 16.253906 C 15.277344 16.667969 15.613281 17.003906 16.027344 17.003906 L 16.433594 17.003906 C 16.847656 17.003906 17.183594 16.667969 17.183594 16.253906 L 17.183594 15.25 Z M 15.277344 15.25 "/>
<path style=" stroke:none;fill-rule:nonzero;fill:rgb(0%,0%,0%);fill-opacity:1;" d="M 14.742188 13.464844 C 14.480469 13.464844 14.265625 13.25 14.265625 12.988281 C 14.265625 12.632812 13.976562 12.339844 13.621094 12.339844 C 13.261719 12.339844 12.972656 12.632812 12.972656 12.988281 C 12.972656 13.25 12.757812 13.464844 12.496094 13.464844 C 12.234375 13.464844 12.019531 13.25 12.019531 12.988281 C 12.019531 12.105469 12.738281 11.386719 13.621094 11.386719 C 14.5 11.386719 15.21875 12.105469 15.21875 12.988281 C 15.21875 13.25 15.007812 13.464844 14.742188 13.464844 Z M 14.742188 13.464844 "/>
<path style=" stroke:none;fill-rule:nonzero;fill:rgb(0%,0%,0%);fill-opacity:1;" d="M 19.796875 13.464844 C 19.535156 13.464844 19.320312 13.25 19.320312 12.988281 C 19.320312 12.632812 19.03125 12.339844 18.675781 12.339844 C 18.320312 12.339844 18.027344 12.632812 18.027344 12.988281 C 18.027344 13.25 17.816406 13.464844 17.550781 13.464844 C 17.289062 13.464844 17.074219 13.25 17.074219 12.988281 C 17.074219 12.105469 17.792969 11.386719 18.675781 11.386719 C 19.558594 11.386719 20.277344 12.105469 20.277344 12.988281 C 20.277344 13.25 20.0625 13.464844 19.796875 13.464844 Z M 19.796875 13.464844 "/>
</g>
</svg>
